# xmcd
#
# Track frame offsets:
#	150
#	11409
#	25350
#	39213
#	51480
#	63682
#	76153
#	88947
#	106520
#	123466
#	137568
#	155553
#	165188
#	183452
#
# Disc length: 2847 seconds
#
# Revision: 3
# Processed by: cddbd v1.5.2PL0 Copyright (c) Steve Scherf et al.
# Submitted via: audiograbber 1.83.01
#
DISCID=ab0b1d0e
DTITLE=Peter de Vries and Tijn Smit - Live, Breda, Catch 22 - 15 jaar
DYEAR=2001
DGENRE=rock
TTITLE0=Down south duking
TTITLE1=Give me some attention
TTITLE2=Ice-cream man
TTITLE3=Easy
TTITLE4=Sick and tired
TTITLE5=That's live
TTITLE6=It comes to me naturally
TTITLE7=Handbags and gladrags
TTITLE8=Hard to handle
TTITLE9=Oh my oh my
TTITLE10=Have a llittle faith in me
TTITLE11=My babe
TTITLE12=Lately
TTITLE13=Gigolo
EXTD=
EXTT0=
EXTT1=
EXTT2=
EXTT3=
EXTT4=
EXTT5=
EXTT6=
EXTT7=
EXTT8=
EXTT9=
EXTT10=
EXTT11=
EXTT12=
EXTT13=
PLAYORDER=
